<svg width="25" height="18" viewBox="0 0 25 18" fill="none" xmlns="http://www.w3.org/2000/svg">
<path d="M24.5592 4.46136C23.7571 2.80175 22.4523 1.60266 20.6689 0.895418C18.2489 -0.0690004 15.7286 -0.188749 13.1628 0.225147C10.4631 0.660743 8.02857 1.68222 5.81363 3.17868C5.37184 3.47765 4.94378 3.7943 4.50971 4.0997C4.48826 4.07639 4.46768 4.05309 4.44623 4.03058L7.03691 1.76259L6.97257 1.62355C6.73924 1.67981 6.46644 1.68142 6.27858 1.80036C4.23692 3.10072 2.56327 4.72577 1.358 6.75908C0.487294 8.22339 -0.0419935 9.76566 0.00261426 11.4606C0.0210923 12.7294 0.540632 13.9469 1.46094 14.8779C2.09489 15.5329 2.86694 16.0191 3.67246 16.4852C5.28091 17.4103 7.01804 17.882 8.88384 17.9769C11.9 18.1312 14.7438 17.5099 17.4108 16.2088C18.333 15.7611 19.2159 15.2456 20.0512 14.6673C21.0628 13.9559 21.9509 13.1022 22.6839 12.1365C23.7991 10.6955 24.7994 9.22398 24.9615 7.3731C25.0516 6.36608 25.0087 5.39202 24.5592 4.46136ZM22.3751 6.99295C22.2699 7.99871 21.9629 8.9768 21.4701 9.87576C20.0881 12.4114 17.8448 14.03 15.074 15.0193C13.0358 15.7491 10.9135 15.8399 8.82808 15.1801C7.4847 14.7541 6.35836 13.9914 5.59316 12.8285C5.52925 12.7261 5.45043 12.6325 5.35897 12.5504C5.2566 12.4753 5.14787 12.4081 5.03385 12.3495C5.03385 12.4958 4.97209 12.671 5.03385 12.7859C6.07527 14.7147 7.67343 15.9886 9.96558 16.4258C10.5076 16.532 11.0563 16.6056 11.6083 16.646C12.1608 16.6838 12.7184 16.6548 13.2897 16.6773C12.8136 16.7657 12.3392 16.9128 11.8597 16.9313C10.5472 16.9811 9.23899 16.965 7.95737 16.5953C6.33691 16.1284 5.05444 15.2934 4.22405 13.8765C3.55665 12.7393 3.33104 11.5402 3.60555 10.2704C3.98224 8.49433 4.90096 6.85888 6.25027 5.5624C7.60943 4.23066 9.22662 3.15333 11.0156 2.38786C12.8514 1.59703 14.7901 1.31173 16.7683 1.66454C18.2137 1.92494 19.4842 2.55824 20.1996 3.86663C20.7143 4.80292 20.9511 5.78181 20.5539 6.81936C20.3635 7.31443 20.1593 7.80467 19.9757 8.30215C19.9431 8.39056 19.9757 8.50066 19.9843 8.60112C20.0907 8.5963 20.2065 8.61479 20.3 8.57942C20.4046 8.54063 20.4943 8.47312 20.5573 8.38574C21.1338 7.50169 21.6434 6.58468 21.6597 5.51418C21.6682 4.9516 21.6193 4.37938 21.5988 3.86342C22.2121 4.80046 22.4845 5.89856 22.3751 6.99295Z" fill="#37AEA0"/>
</svg>
